<svg width="21" height="21" viewBox="0 0 21 21" fill="none" xmlns="http://www.w3.org/2000/svg">
<g id="Icon">
<path id="Vector" d="M18 2.11038H3C2.30833 2.11038 1.75 2.67705 1.75 3.36872V18.3604C1.75 19.052 2.30833 19.6187 3 19.6187H18C18.6833 19.6187 19.25 19.052 19.25 18.3604V3.36038C19.25 2.66872 18.6833 2.10205 18 2.10205V2.11038ZM7.04167 17.1104H4.44167V8.76038H7.04167V17.1104ZM5.74167 7.61038C5.34384 7.61038 4.96231 7.45235 4.68101 7.17104C4.3997 6.88974 4.24167 6.50821 4.24167 6.11038C4.24167 5.71256 4.3997 5.33103 4.68101 5.04972C4.96231 4.76842 5.34384 4.61038 5.74167 4.61038C6.13949 4.61038 6.52102 4.76842 6.80233 5.04972C7.08363 5.33103 7.24167 5.71256 7.24167 6.11038C7.24167 6.50821 7.08363 6.88974 6.80233 7.17104C6.52102 7.45235 6.13949 7.61038 5.74167 7.61038ZM16.7583 17.1104H14.175V13.0437C14.175 12.0771 14.15 10.8354 12.8167 10.8354C11.4667 10.8354 11.2583 11.8854 11.2583 12.9771V17.1104H8.675V8.76038H11.1583V9.90205H11.1917C11.4413 9.47594 11.8016 9.12542 12.2345 8.88771C12.6673 8.65001 13.1565 8.53401 13.65 8.55205C16.275 8.55205 16.7583 10.2854 16.7583 12.5354V17.1104Z" fill="#009F30"/>
</g>
</svg>
