<svg width="18" height="18" viewBox="0 0 18 18" fill="none" xmlns="http://www.w3.org/2000/svg">
<path id="Vector" d="M8.9999 0.117676C4.19148 0.117676 0.257324 4.05183 0.257324 8.86025C0.257324 13.6687 4.19148 17.6028 8.9999 17.6028C13.8083 17.6028 17.7425 13.6687 17.7425 8.86025C17.7425 4.05183 13.8083 0.117676 8.9999 0.117676ZM12.2346 9.47223L9.61188 12.095C9.26217 12.4447 8.73762 12.4447 8.38792 12.095C8.03821 11.7453 8.03821 11.2207 8.38792 10.871L9.52445 9.7345H6.37712C5.85257 9.7345 5.50287 9.3848 5.50287 8.86025C5.50287 8.33569 5.85257 7.98599 6.37712 7.98599H9.52445L8.38792 6.84946C8.03821 6.49975 8.03821 5.9752 8.38792 5.6255C8.73762 5.27579 9.26217 5.27579 9.61188 5.6255L12.2346 8.24827C12.5844 8.59797 12.5844 9.12253 12.2346 9.47223Z" fill="white"/>
</svg>
